<svg xmlns="http://www.w3.org/2000/svg" xmlns:xlink="http://www.w3.org/1999/xlink" width="104" height="106" viewBox="0 0 104 106">
  <defs>
    <!-- Top-to-bottom elevated face gradient -->
    <linearGradient id="tileFace_bash" x1="0%" y1="0%" x2="0%" y2="100%">
      <stop offset="0%" stop-color="#1B2232"/>
      <stop offset="45%" stop-color="#111622"/>
      <stop offset="100%" stop-color="#080B12"/>
    </linearGradient>
    <!-- Subtle bottom bevel shadow for 3D extrusion -->
    <linearGradient id="bevelShadow_bash" x1="0%" y1="0%" x2="0%" y2="100%">
      <stop offset="0%" stop-color="#080B10"/>
      <stop offset="100%" stop-color="#030508"/>
    </linearGradient>
  </defs>

  <!-- 1. Ambient Drop Shadows (Multi-Layer Elevation) -->
  <rect x="8" y="12" width="88" height="88" rx="14" fill="#000000" opacity="0.62"/>
  <rect x="4" y="8" width="96" height="92" rx="13" fill="#000000" opacity="0.40"/>

  <!-- 2. Bottom 3D Extrusion Bevel (Physical Thickness Lip) -->
  <rect x="4" y="4" width="96" height="94" rx="12" fill="url(#bevelShadow_bash)" stroke="#4eaa25" stroke-opacity="0.20" stroke-width="1"/>

  <!-- 3. Primary Elevated Card Face (Lifted 2px up) -->
  <rect x="4" y="2" width="96" height="92" rx="12" fill="url(#tileFace_bash)" stroke="#4eaa25" stroke-opacity="0.42" stroke-width="1.1"/>

  <!-- 4. Inner Glass / Acrylic Chamfer Reflection -->
  <rect x="5.5" y="3.5" width="93" height="89" rx="10.5" fill="none" stroke="#FFFFFF" stroke-opacity="0.08" stroke-width="1"/>

  <!-- 5. Top Specular Glass Highlight -->
  <path d="M 16 3.5 L 88 3.5" stroke="#FFFFFF" stroke-opacity="0.32" stroke-width="1.2" stroke-linecap="round"/>
  <path d="M 6.5 12 L 6.5 38" stroke="#FFFFFF" stroke-opacity="0.10" stroke-width="1" stroke-linecap="round"/>

  <!-- 6. Subtle Ambient Bottom Color Sheen -->
  <ellipse cx="52" cy="90" rx="32" ry="3.5" fill="#4eaa25" opacity="0.20"/>


  <!-- 7. Logo Container (with subtle drop shadow & brand glow) -->
  <g transform="translate(34, 18)">
    <circle cx="18" cy="18" r="19" fill="#4eaa25" opacity="0.07"/>
    <ellipse cx="18" cy="34" rx="15" ry="3" fill="#000000" opacity="0.45"/>
    <svg width="36" height="36" viewBox="0 0 24 24" fill="#4EAA25">
      <path d="M21.038,4.9l-7.577-4.498C13.009,0.134,12.505,0,12,0c-0.505,0-1.009,0.134-1.462,0.403L2.961,4.9 C2.057,5.437,1.5,6.429,1.5,7.503v8.995c0,1.073,0.557,2.066,1.462,2.603l7.577,4.497C10.991,23.866,11.495,24,12,24 c0.505,0,1.009-0.134,1.461-0.402l7.577-4.497c0.904-0.537,1.462-1.529,1.462-2.603V7.503C22.5,6.429,21.943,5.437,21.038,4.9z M15.17,18.946l0.013,0.646c0.001,0.078-0.05,0.167-0.111,0.198l-0.383,0.22c-0.061,0.031-0.111-0.007-0.112-0.085L14.57,19.29 c-0.328,0.136-0.66,0.169-0.872,0.084c-0.04-0.016-0.057-0.075-0.041-0.142l0.139-0.584c0.011-0.046,0.036-0.092,0.069-0.121 c0.012-0.011,0.024-0.02,0.036-0.026c0.022-0.011,0.043-0.014,0.062-0.006c0.229,0.077,0.521,0.041,0.802-0.101 c0.357-0.181,0.596-0.545,0.592-0.907c-0.003-0.328-0.181-0.465-0.613-0.468c-0.55,0.001-1.064-0.107-1.072-0.917 c-0.007-0.667,0.34-1.361,0.889-1.8l-0.007-0.652c-0.001-0.08,0.048-0.168,0.111-0.2l0.37-0.236 c0.061-0.031,0.111,0.007,0.112,0.087l0.006,0.653c0.273-0.109,0.511-0.138,0.726-0.088c0.047,0.012,0.067,0.076,0.048,0.151 l-0.144,0.578c-0.011,0.044-0.036,0.088-0.065,0.116c-0.012,0.012-0.025,0.021-0.038,0.028c-0.019,0.01-0.038,0.013-0.057,0.009 c-0.098-0.022-0.332-0.073-0.699,0.113c-0.385,0.195-0.52,0.53-0.517,0.778c0.003,0.297,0.155,0.387,0.681,0.396 c0.7,0.012,1.003,0.318,1.01,1.023C16.105,17.747,15.736,18.491,15.17,18.946z M19.143,17.859c0,0.06-0.008,0.116-0.058,0.145 l-1.916,1.164c-0.05,0.029-0.09,0.004-0.09-0.056v-0.494c0-0.06,0.037-0.093,0.087-0.122l1.887-1.129 c0.05-0.029,0.09-0.004,0.09,0.056V17.859z M20.459,6.797l-7.168,4.427c-0.894,0.523-1.553,1.109-1.553,2.187v8.833 c0,0.645,0.26,1.063,0.66,1.184c-0.131,0.023-0.264,0.039-0.398,0.039c-0.42,0-0.833-0.114-1.197-0.33L3.226,18.64 c-0.741-0.44-1.201-1.261-1.201-2.142V7.503c0-0.881,0.46-1.702,1.201-2.142l7.577-4.498c0.363-0.216,0.777-0.33,1.197-0.33 c0.419,0,0.833,0.114,1.197,0.33l7.577,4.498c0.624,0.371,1.046,1.013,1.164,1.732C21.686,6.557,21.12,6.411,20.459,6.797z"/>
    </svg>
  </g>

  <!-- 8. Crisp High-Contrast Typography Label -->
  <text x="52" y="83" text-anchor="middle" font-family="-apple-system, BlinkMacSystemFont, 'Segoe UI', Roboto, sans-serif" font-size="11" font-weight="600" fill="#E2E8F0" letter-spacing="-0.1">
    Bash
  </text>
</svg>
