<svg xmlns="http://www.w3.org/2000/svg" xmlns:xlink="http://www.w3.org/1999/xlink" width="96" height="92" viewBox="0 0 96 92">
  <defs>
    <linearGradient id="bg_git" x1="0%" y1="0%" x2="100%" y2="100%">
      <stop offset="0%" stop-color="#151B26" />
      <stop offset="100%" stop-color="#0B0E14" />
    </linearGradient>
  </defs>

  <!-- Card Base -->
  <rect width="96" height="92" rx="12" fill="url(#bg_git)" stroke="#f05032" stroke-opacity="0.35" stroke-width="1.1" />
  <rect x="1" y="1" width="94" height="90" rx="11" fill="none" stroke="#FFFFFF" stroke-opacity="0.05" stroke-width="1" />

  <!-- Logo (36x36) -->
  <svg x="30" y="14" width="36" height="36" viewBox="0 0 24 24" fill="#F05032">
    
  <path d="M13.09 23.549a1.54 1.54 0 0 1-2.18 0L.451 13.089a1.54 1.54 0 0 1 0-2.179l7.191-7.19 2.733 2.733a1.85 1.85 0 0 0 .964 2.326v6.66a1.849 1.849 0 1 0 1.54 0V8.957l2.508 2.508a1.85 1.85 0 1 0 1.09-1.09l-2.634-2.634a1.85 1.85 0 0 0-2.378-2.377L8.73 2.63 10.91.451a1.54 1.54 0 0 1 2.179 0l10.459 10.46a1.54 1.54 0 0 1 0 2.179z"/>

  </svg>

  <!-- Label -->
  <text x="48" y="79" text-anchor="middle" font-family="-apple-system, BlinkMacSystemFont, 'Segoe UI', Roboto, Helvetica, Arial, sans-serif" font-size="11" font-weight="600" fill="#E2E8F0" letter-spacing="-0.1">
    Git
  </text>
</svg>