<svg xmlns="http://www.w3.org/2000/svg" xmlns:xlink="http://www.w3.org/1999/xlink" width="96" height="92" viewBox="0 0 96 92">
  <defs>
    <linearGradient id="bg_jml_workflows" x1="0%" y1="0%" x2="100%" y2="100%">
      <stop offset="0%" stop-color="#151B26" />
      <stop offset="100%" stop-color="#0B0E14" />
    </linearGradient>
  </defs>

  <!-- Card Base -->
  <rect width="96" height="92" rx="12" fill="url(#bg_jml_workflows)" stroke="#10b981" stroke-opacity="0.35" stroke-width="1.1" />
  <rect x="1" y="1" width="94" height="90" rx="11" fill="none" stroke="#FFFFFF" stroke-opacity="0.05" stroke-width="1" />
  <circle cx="85" cy="11" r="4" fill="#FFDB70" opacity="0.25" />
  <circle cx="85" cy="11" r="2.2" fill="#FFDB70" />
  <!-- Logo (36x36) -->
  <svg x="30" y="14" width="36" height="36" viewBox="0 0 100 100">
    
  <circle cx="50" cy="50" r="36" fill="none" stroke="#10b981" stroke-width="3" stroke-linecap="round" stroke-dasharray="24 8"/>
  <polygon points="50,10 56,18 44,18" fill="#34d399"/>
  <polygon points="85,68 88,58 78,64" fill="#34d399"/>
  <polygon points="15,68 25,64 15,58" fill="#34d399"/>
  <circle cx="50" cy="42" r="8" fill="#34d399"/>
  <path d="M38 64 C38 54 44 52 50 52 C56 52 62 54 62 64" fill="none" stroke="#10b981" stroke-width="3" stroke-linecap="round"/>

  </svg>

  <!-- Label -->
  <text x="48" y="79" text-anchor="middle" font-family="-apple-system, BlinkMacSystemFont, 'Segoe UI', Roboto, Helvetica, Arial, sans-serif" font-size="9.5" font-weight="600" fill="#FFEDB3" letter-spacing="-0.1">
    JML Lifecycle
  </text>
</svg>