<svg xmlns="http://www.w3.org/2000/svg" xmlns:xlink="http://www.w3.org/1999/xlink" width="104" height="106" viewBox="0 0 104 106">
  <defs>
    <!-- Top-to-bottom elevated face gradient -->
    <linearGradient id="tileFace_mongodb" x1="0%" y1="0%" x2="0%" y2="100%">
      <stop offset="0%" stop-color="#1B2232"/>
      <stop offset="45%" stop-color="#111622"/>
      <stop offset="100%" stop-color="#080B12"/>
    </linearGradient>
    <!-- Subtle bottom bevel shadow for 3D extrusion -->
    <linearGradient id="bevelShadow_mongodb" x1="0%" y1="0%" x2="0%" y2="100%">
      <stop offset="0%" stop-color="#080B10"/>
      <stop offset="100%" stop-color="#030508"/>
    </linearGradient>
  </defs>

  <!-- 1. Ambient Drop Shadows (Multi-Layer Elevation) -->
  <rect x="8" y="12" width="88" height="88" rx="14" fill="#000000" opacity="0.62"/>
  <rect x="4" y="8" width="96" height="92" rx="13" fill="#000000" opacity="0.40"/>

  <!-- 2. Bottom 3D Extrusion Bevel (Physical Thickness Lip) -->
  <rect x="4" y="4" width="96" height="94" rx="12" fill="url(#bevelShadow_mongodb)" stroke="#47a248" stroke-opacity="0.20" stroke-width="1"/>

  <!-- 3. Primary Elevated Card Face (Lifted 2px up) -->
  <rect x="4" y="2" width="96" height="92" rx="12" fill="url(#tileFace_mongodb)" stroke="#47a248" stroke-opacity="0.42" stroke-width="1.1"/>

  <!-- 4. Inner Glass / Acrylic Chamfer Reflection -->
  <rect x="5.5" y="3.5" width="93" height="89" rx="10.5" fill="none" stroke="#FFFFFF" stroke-opacity="0.08" stroke-width="1"/>

  <!-- 5. Top Specular Glass Highlight -->
  <path d="M 16 3.5 L 88 3.5" stroke="#FFFFFF" stroke-opacity="0.32" stroke-width="1.2" stroke-linecap="round"/>
  <path d="M 6.5 12 L 6.5 38" stroke="#FFFFFF" stroke-opacity="0.10" stroke-width="1" stroke-linecap="round"/>

  <!-- 6. Subtle Ambient Bottom Color Sheen -->
  <ellipse cx="52" cy="90" rx="32" ry="3.5" fill="#47a248" opacity="0.20"/>


  <!-- 7. Logo Container (with subtle drop shadow & brand glow) -->
  <g transform="translate(34, 18)">
    <circle cx="18" cy="18" r="19" fill="#47a248" opacity="0.07"/>
    <ellipse cx="18" cy="34" rx="15" ry="3" fill="#000000" opacity="0.45"/>
    <svg width="36" height="36" viewBox="0 0 24 24" fill="#47A248">
      <path d="M17.193 9.555c-1.264-5.58-4.252-7.414-4.573-8.115-.28-.394-.53-.954-.735-1.44-.036.495-.055.685-.523 1.184-.723.566-4.438 3.682-4.74 10.02-.282 5.912 4.27 9.435 4.888 9.884l.07.05A73.49 73.49 0 0111.91 24h.481c.114-1.032.284-2.056.51-3.07.417-.296.604-.463.85-.693a11.342 11.342 0 003.639-8.464c.01-.814-.103-1.662-.197-2.218zm-5.336 8.195s0-8.291.275-8.29c.213 0 .49 10.695.49 10.695-.381-.045-.765-1.76-.765-2.405z"/>
    </svg>
  </g>

  <!-- 8. Crisp High-Contrast Typography Label -->
  <text x="52" y="83" text-anchor="middle" font-family="-apple-system, BlinkMacSystemFont, 'Segoe UI', Roboto, sans-serif" font-size="11" font-weight="600" fill="#E2E8F0" letter-spacing="-0.1">
    MongoDB
  </text>
</svg>
