<svg xmlns="http://www.w3.org/2000/svg" xmlns:xlink="http://www.w3.org/1999/xlink" width="104" height="106" viewBox="0 0 104 106"><defs><linearGradient id="tileFace_tailwind" x1="0%" x2="0%" y1="0%" y2="100%"><stop offset="0%" stop-color="#1B2232"/><stop offset="45%" stop-color="#111622"/><stop offset="100%" stop-color="#080B12"/></linearGradient><linearGradient id="bevelShadow_tailwind" x1="0%" x2="0%" y1="0%" y2="100%"><stop offset="0%" stop-color="#080B10"/><stop offset="100%" stop-color="#030508"/></linearGradient></defs><rect width="88" height="88" x="8" y="12" fill="#000" opacity=".62" rx="14"/><rect width="96" height="92" x="4" y="8" fill="#000" opacity=".4" rx="13"/><rect width="96" height="94" x="4" y="4" fill="url(#bevelShadow_tailwind)" stroke="#06b6d4" stroke-opacity=".2" stroke-width="1" rx="12"/><rect width="96" height="92" x="4" y="2" fill="url(#tileFace_tailwind)" stroke="#06b6d4" stroke-opacity=".42" stroke-width="1.1" rx="12"/><rect width="93" height="89" x="5.5" y="3.5" fill="none" stroke="#FFF" stroke-opacity=".08" stroke-width="1" rx="10.5"/><path stroke="#FFF" stroke-linecap="round" stroke-opacity=".32" stroke-width="1.2" d="M 16 3.5 L 88 3.5"/><path stroke="#FFF" stroke-linecap="round" stroke-opacity=".1" stroke-width="1" d="M 6.5 12 L 6.5 38"/><ellipse cx="52" cy="90" fill="#06b6d4" opacity=".2" rx="32" ry="3.5"/><g transform="translate(34, 18)"><circle cx="18" cy="18" r="19" fill="#06b6d4" opacity=".07"/><ellipse cx="18" cy="34" fill="#000" opacity=".45" rx="15" ry="3"/><svg width="36" height="36" fill="#06B6D4" viewBox="0 0 24 24"><path d="M12.001,4.8c-3.2,0-5.2,1.6-6,4.8c1.2-1.6,2.6-2.2,4.2-1.8c0.913,0.228,1.565,0.89,2.288,1.624 C13.666,10.618,15.027,12,18.001,12c3.2,0,5.2-1.6,6-4.8c-1.2,1.6-2.6,2.2-4.2,1.8c-0.913-0.228-1.565-0.89-2.288-1.624 C16.337,6.182,14.976,4.8,12.001,4.8z M6.001,12c-3.2,0-5.2,1.6-6,4.8c1.2-1.6,2.6-2.2,4.2-1.8c0.913,0.228,1.565,0.89,2.288,1.624 c1.177,1.194,2.538,2.576,5.512,2.576c3.2,0,5.2-1.6,6-4.8c-1.2,1.6-2.6,2.2-4.2,1.8c-0.913-0.228-1.565-0.89-2.288-1.624 C10.337,13.382,8.976,12,6.001,12z"/></svg></g><text x="52" y="83" fill="#E2E8F0" font-family="-apple-system, BlinkMacSystemFont, 'Segoe UI', Roboto, sans-serif" font-size="11" font-weight="600" letter-spacing="-.1" text-anchor="middle">Tailwind</text></svg>