<svg xmlns="http://www.w3.org/2000/svg" width="100%" height="100%" viewBox="0 0 1200 176"><defs><linearGradient id="tsBg" x1="0%" x2="100%" y1="0%" y2="100%"><stop offset="0%" stop-color="#0F172A"/><stop offset="40%" stop-color="#0B1324"/><stop offset="100%" stop-color="#050811"/></linearGradient><linearGradient id="tsAccent" x1="0%" x2="100%" y1="0%" y2="0%"><stop offset="0%" stop-color="#00F2FE"/><stop offset="50%" stop-color="#3B82F6"/><stop offset="100%" stop-color="#FFDB70"/></linearGradient><pattern id="tsGrid" width="30" height="30" patternUnits="userSpaceOnUse"><path fill="none" stroke="#1E293B" stroke-opacity=".45" stroke-width=".6" d="M 30 0 L 0 0 0 30"/></pattern></defs><rect width="1200" height="168" x="0" y="8" fill="#000" opacity=".5" rx="14"/><rect width="1200" height="168" x="0" y="4" fill="#050811" stroke="#334155" stroke-opacity=".4" stroke-width="1.2" rx="14"/><rect width="1200" height="170" x="0" y="0" fill="url(#tsBg)" stroke="#1E293B" stroke-width="1.2" rx="14"/><rect width="1200" height="170" x="0" y="0" fill="url(#tsGrid)" rx="14"/><rect width="1200" height="3.5" x="0" y="0" fill="url(#tsAccent)" rx="1.5"/><path stroke="#FFF" stroke-linecap="round" stroke-opacity=".25" stroke-width="1.2" d="M 40 2 L 1160 2"/><g><g transform="translate(48, 0) translate(0, 24)"><rect width="320" height="24" fill="#111D38" stroke="#1E3A5F" stroke-width="1" rx="12"/><circle cx="14" cy="12" r="4" fill="#00F2FE"/><text x="26" y="16" fill="#93C5FD" font-family="-apple-system, BlinkMacSystemFont, 'Segoe UI', Roboto, sans-serif" font-size="10.5" font-weight="700" letter-spacing="1.5">• 3D TECHNOLOGY WALL • 56 LOGOS</text></g><text x="0" y="86" fill="#FFF" font-family="-apple-system, BlinkMacSystemFont, 'Segoe UI', Roboto, sans-serif" font-size="34" font-weight="800" letter-spacing="-.5" transform="translate(48, 0)">TECHNOLOGY ECOSYSTEM <tspan fill="#94A3B8" font-size="17" font-weight="500">/ 56 Verified Production Technologies Across 8 Disciplines</tspan></text><g transform="translate(48, 0) translate(0, 112)"><rect width="105" height="28" x="0" y="0" fill="#222016" stroke="#FFDB70" stroke-width="1.2" rx="14"/><circle cx="12" cy="14" r="3.5" fill="#FFDB70"/><text x="22" y="18" fill="#FFDB70" font-family="-apple-system, BlinkMacSystemFont, 'Segoe UI', Roboto, sans-serif" font-size="10.5" font-weight="700">ALL (56)</text><rect width="112" height="28" x="115" y="0" fill="#082433" stroke="#00F2FE" stroke-width="1" rx="14"/><circle cx="127" cy="14" r="3.5" fill="#00F2FE"/><text x="136" y="18" fill="#38BDF8" font-family="-apple-system, BlinkMacSystemFont, 'Segoe UI', Roboto, sans-serif" font-size="10.5" font-weight="600">IAM / IGA (8)</text><rect width="168" height="28" x="237" y="0" fill="#0E1F38" stroke="#336791" stroke-width="1" rx="14"/><circle cx="249" cy="14" r="3.5" fill="#336791"/><text x="258" y="18" fill="#93C5FD" font-family="-apple-system, BlinkMacSystemFont, 'Segoe UI', Roboto, sans-serif" font-size="10.5" font-weight="600">DATA &amp; AUTO (7)</text><rect width="145" height="28" x="415" y="0" fill="#211233" stroke="#A855F7" stroke-width="1" rx="14"/><circle cx="427" cy="14" r="3.5" fill="#A855F7"/><text x="436" y="18" fill="#D8B4FE" font-family="-apple-system, BlinkMacSystemFont, 'Segoe UI', Roboto, sans-serif" font-size="10.5" font-weight="600">AGENTIC AI (4)</text><rect width="95" height="28" x="570" y="0" fill="#2B1B0D" stroke="#F90" stroke-width="1" rx="14"/><circle cx="582" cy="14" r="3.5" fill="#F90"/><text x="591" y="18" fill="#FDBA74" font-family="-apple-system, BlinkMacSystemFont, 'Segoe UI', Roboto, sans-serif" font-size="10.5" font-weight="600">CLOUD (4)</text><rect width="105" height="28" x="675" y="0" fill="#0E2138" stroke="#2496ED" stroke-width="1" rx="14"/><circle cx="687" cy="14" r="3.5" fill="#2496ED"/><text x="696" y="18" fill="#60A5FA" font-family="-apple-system, BlinkMacSystemFont, 'Segoe UI', Roboto, sans-serif" font-size="10.5" font-weight="600">DEVOPS (8)</text><rect width="112" height="28" x="790" y="0" fill="#0D261C" stroke="#10B981" stroke-width="1" rx="14"/><circle cx="802" cy="14" r="3.5" fill="#10B981"/><text x="811" y="18" fill="#6EE7B7" font-family="-apple-system, BlinkMacSystemFont, 'Segoe UI', Roboto, sans-serif" font-size="10.5" font-weight="600">SECURITY (5)</text><rect width="80" height="28" x="912" y="0" fill="#0E2235" stroke="#3776AB" stroke-width="1" rx="14"/><text x="922" y="18" fill="#7DD3FC" font-family="-apple-system, BlinkMacSystemFont, 'Segoe UI', Roboto, sans-serif" font-size="10.5" font-weight="600">DEV (15)</text><rect width="100" height="28" x="1002" y="0" fill="#152410" stroke="#81B441" stroke-width="1" rx="14"/><circle cx="1014" cy="14" r="3.5" fill="#81B441"/><text x="1023" y="18" fill="#A3E635" font-family="-apple-system, BlinkMacSystemFont, 'Segoe UI', Roboto, sans-serif" font-size="10.5" font-weight="600">ENTERPRISE (5)</text></g></g></svg>